<svg width="160" height="160" viewBox="0 0 160 160" fill="none" xmlns="http://www.w3.org/2000/svg">
<path d="M68.3781 22.0343H24.0643V19H73.0223V76.0773H23V73.043L68.3781 22.0343ZM69.4424 73.043V25.8886L27.4507 73.043H69.4424Z" fill="#94FEBF"/>
<path d="M108.941 42.7822L137 76.0773H82.8172V19H137L108.941 42.7822ZM106.425 44.9144L86.3972 61.89V73.043H130.13L106.425 44.9144Z" fill="#94FEBF"/>
<path d="M25.6124 141V83.9227H53.7681C58.4768 83.9227 62.5405 84.6608 65.9592 86.1369C69.8939 87.8317 73.0223 90.2646 75.3444 93.4356C77.6665 96.5519 78.8276 99.9962 78.8276 103.769C78.8276 107.541 77.6665 111.013 75.3444 114.184C73.0868 117.354 69.9907 119.787 66.056 121.482C62.7018 122.958 58.6058 123.696 53.7681 123.696H43.2218V141H25.6124Z" fill="#94FEBF"/>
<path d="M135.839 141H84.075V83.9227H110.296C115.907 83.9227 120.487 84.7701 124.035 86.4649C127.518 88.1051 130.227 90.3466 132.162 93.1896C134.097 96.0325 135.065 99.1761 135.065 102.62C135.065 106.885 133.517 110.712 130.421 114.101C127.325 117.436 123.422 119.651 118.713 120.744L135.839 141ZM90.1706 86.957L116.488 118.12C120.81 117.354 124.39 115.523 127.228 112.625C130.066 109.728 131.485 106.393 131.485 102.62C131.485 99.6135 130.614 96.8799 128.873 94.4197C127.131 91.9594 124.68 90.0733 121.519 88.7611C118.681 87.5584 114.972 86.957 110.392 86.957H90.1706ZM87.655 88.9252V118.366H112.521L87.655 88.9252ZM87.655 137.966H129.066L114.94 121.318L111.94 121.4H87.655V137.966Z" fill="#94FEBF"/>
</svg>
