<svg xmlns="http://www.w3.org/2000/svg" width="118" height="126"
    style="shape-rendering:geometricPrecision;text-rendering:geometricPrecision;image-rendering:optimizeQuality;fill-rule:evenodd;clip-rule:evenodd">
    <path fill="#4ffe2f"
        d="M48.5-.5h4a525.115 525.115 0 0 1 26 15.5 65.434 65.434 0 0 1 12 11.5 4.932 4.932 0 0 1-.5 3C79.527 42.726 66.36 46.226 50.5 40c-4.445-2.762-8.111-6.262-11-10.5 16.591-5.634 19.591-15.634 9-30Z"
        style="opacity:.981" />
    <path fill="#1bfb73"
        d="M21.5 23.5c3.291 11.587 9.791 20.92 19.5 28a36.87 36.87 0 0 0 5.5 2 67.713 67.713 0 0 0-12 10c-11.716-6.07-19.716-15.403-24-28 3.676-4.041 7.343-8.041 11-12Z"
        style="opacity:.995" />
    <path fill="#30fd55"
        d="M39.5 29.5c2.889 4.238 6.555 7.738 11 10.5 15.86 6.226 29.027 2.726 39.5-10.5.483-.948.65-1.948.5-3 4.162 3.501 7.162 7.835 9 13-.89 2.236-2.222 4.236-4 6a86.117 86.117 0 0 0-9 6.5c-3.955 2.596-8.288 4.096-13 4.5-8.605-4.043-17.605-5.043-27-3a36.899 36.899 0 0 1-5.5-2c-9.709-7.08-16.209-16.413-19.5-28a105.468 105.468 0 0 1 7.5-10 130.225 130.225 0 0 1 5 12c1.432 1.939 3.265 3.272 5.5 4Z"
        style="opacity:.999" />
    <path fill="#1dfb70"
        d="M99.5 39.5c3.515 5.382 5.182 11.382 5 18-4.333 1.337-8.333 3.504-12 6.5a25.936 25.936 0 0 1-9 3.5 39.315 39.315 0 0 0-10-11c4.712-.404 9.045-1.904 13-4.5a86.117 86.117 0 0 1 9-6.5c1.778-1.764 3.11-3.764 4-6Z"
        style="opacity:.999" />
    <path fill="#161717"
        d="M73.5 56.5a39.315 39.315 0 0 1 10 11l2 5v10c-.934 1.068-1.268 2.401-1 4-.901.79-1.568 1.79-2 3-1.97 2.308-3.97 4.641-6 7-.951 1.419-1.284 3.085-1 5v3c-.644 2.644-2.31 4.311-5 5-1.636-10.587-2.636-10.587-3 0h-8v-7h-3v7h-8a32.438 32.438 0 0 0-.5-8 3.647 3.647 0 0 0-1.5-1l-2 9c-1.761-.535-3.094-1.535-4-3a20.676 20.676 0 0 1-1-5v-4a56.489 56.489 0 0 1-8-10c.098-2.053-.569-3.72-2-5v-8l1-4a36.178 36.178 0 0 1 4-7 67.713 67.713 0 0 1 12-10c9.395-2.043 18.395-1.043 27 3Z"
        style="opacity:1" />
    <path fill="#38c9a3"
        d="M2.5 45.5c6.542 11.878 15.542 21.545 27 29v4c-12.01-6.71-21.342-16.043-28-28-.134-1.791.2-3.458 1-5Z"
        style="opacity:.999" />
    <path fill="#31d39b"
        d="M5.5 41.5c5.091 12.427 13.424 22.094 25 29l-1 4c-11.458-7.455-20.458-17.122-27-29 .526-1.73 1.526-3.064 3-4Z"
        style="opacity:.998" />
    <path fill="#22e88c"
        d="M10.5 35.5c4.284 12.597 12.284 21.93 24 28a36.178 36.178 0 0 0-4 7c-11.576-6.906-19.909-16.573-25-29 .92-2.59 2.586-4.59 5-6Z"
        style="opacity:.999" />
    <path fill="#1bf186"
        d="M104.5 57.5a21.434 21.434 0 0 1-1 7c-3.603.803-6.603 2.637-9 5.5a140.474 140.474 0 0 0-9 2.5l-2-5a25.936 25.936 0 0 0 9-3.5c3.667-2.996 7.667-5.163 12-6.5Z"
        style="opacity:.999" />
    <path fill="#3ec0a8"
        d="M117.5 61.5v6c-9.303 9.156-20.303 15.489-33 19-.268-1.599.066-2.932 1-4 4.856-1.123 9.523-2.957 14-5.5a80.178 80.178 0 0 0 18-15.5Z"
        style="opacity:.992" />
    <path fill="#4cacb5"
        d="M2.5 60.5a303.627 303.627 0 0 1 15 14.5 115.152 115.152 0 0 0 12 7.5c1.431 1.28 2.098 2.947 2 5-7.765-3.052-14.765-7.385-21-13-3.677-4.011-6.343-8.678-8-14Z"
        style="opacity:.978" />
    <path fill="#31d49b"
        d="M117.5 52.5v9a80.178 80.178 0 0 1-18 15.5c-4.477 2.543-9.144 4.377-14 5.5v-10a140.474 140.474 0 0 1 9-2.5c2.397-2.863 5.397-4.697 9-5.5-.092 3.571 1.574 4.738 5 3.5 3.686-4.885 6.686-10.051 9-15.5Z"
        style="opacity:.999" />
    <path fill="#28d48a"
        d="M67.5 72.5c7.891.629 10.225 4.462 7 11.5-7.742 3.248-11.242.748-10.5-7.5a37.81 37.81 0 0 1 3.5-4Z"
        style="opacity:.999" />
    <path fill="#43baad"
        d="M1.5 50.5c6.658 11.957 15.99 21.29 28 28v4a115.152 115.152 0 0 1-12-7.5 303.627 303.627 0 0 0-15-14.5 34.17 34.17 0 0 1-1-10Z"
        style="opacity:.996" />
    <path fill="#31d098"
        d="M41.5 73.5c10.355-.901 12.689 2.932 7 11.5-9.035.406-11.368-3.428-7-11.5Z"
        style="opacity:.998" />
    <path fill="#6b81d4"
        d="M1.5 78.5c11.036 10.192 23.703 17.859 38 23a20.676 20.676 0 0 0 1 5c-13.57-4.922-25.903-11.922-37-21-1.44-2.088-2.106-4.421-2-7Z"
        style="opacity:.983" />
    <path fill="#599ac2"
        d="M115.5 79.5a31.705 31.705 0 0 1-2 6 7427.15 7427.15 0 0 1-15 8.5 652.43 652.43 0 0 1-23 7.5c-.284-1.915.049-3.581 1-5 14.408-2.71 27.408-8.377 39-17Z"
        style="opacity:.983" />
    <path fill="#46b5b0"
        d="M117.5 67.5v6h-1c-9.653 8.329-20.653 14.329-33 18-.797-.457-1.13-1.124-1-2 .432-1.21 1.099-2.21 2-3 12.697-3.511 23.697-9.844 33-19Z"
        style="opacity:.999" />
    <path fill="#50a5b8"
        d="M116.5 73.5c.175 2.12-.159 4.12-1 6-11.592 8.623-24.592 14.29-39 17 2.03-2.359 4.03-4.692 6-7-.13.876.203 1.543 1 2 12.347-3.671 23.347-9.671 33-18Z"
        style="opacity:.999" />
    <path fill="#39aa96"
        d="M56.5 83.5c2.583 1.485 3.916 3.818 4 7a9.864 9.864 0 0 1-6-1c1.247-1.823 1.914-3.823 2-6Z"
        style="opacity:.998" />
    <path fill="#569dbf"
        d="M-.5 64.5A119.298 119.298 0 0 0 9.5 79c.916.374 1.75.874 2.5 1.5-.15-2.006-.65-4.006-1.5-6 6.235 5.615 13.235 9.948 21 13a56.489 56.489 0 0 0 8 10c-15.765-5.538-29.098-14.538-40-27v-6Z"
        style="opacity:1" />
    <path fill="#638ecc"
        d="M-.5 70.5c10.902 12.462 24.235 21.462 40 27v4c-14.297-5.141-26.964-12.808-38-23l-2-5v-3Z"
        style="opacity:.998" />
    <path fill="#638ecc"
        d="M113.5 85.5c-.492 2.319-1.492 4.319-3 6-10.674 6.83-22.34 11.163-35 13v-3a652.43 652.43 0 0 0 23-7.5 7427.15 7427.15 0 0 0 15-8.5Z"
        style="opacity:1" />
    <path fill="#7671de"
        d="M3.5 85.5c11.097 9.078 23.43 16.078 37 21 .906 1.465 2.239 2.465 4 3l2-9a3.647 3.647 0 0 1 1.5 1c.497 2.646.664 5.313.5 8 19.235 2.966 37.902.299 56-8-.943 2.609-2.61 4.609-5 6-32.373 11.328-62.706 7.328-91-12-2.174-3.015-3.841-6.349-5-10Z"
        style="opacity:.998" />
    <path fill="#8263eb"
        d="M8.5 95.5c28.294 19.328 58.627 23.328 91 12-2.05 3.05-4.716 5.383-8 7-27.075 6.784-52.742 3.45-77-10-2.741-2.475-4.741-5.475-6-9Z"
        style="opacity:1" />
    <path fill="#6d79d2"
        d="M110.5 91.5c-.998 4.005-2.998 7.339-6 10-18.098 8.299-36.765 10.966-56 8h8v-7h3v7h8c.364-10.587 1.364-10.587 3 0 2.69-.689 4.356-2.356 5-5 12.66-1.837 24.326-6.17 35-13Z"
        style="opacity:.999" />
    <path fill="#924cfb"
        d="M25.5 114.5c18.108 6.548 36.441 8.548 55 6a72.77 72.77 0 0 1-16 5h-12c-9.86-1.51-18.86-5.177-27-11Z"
        style="opacity:.946" />
    <path fill="#8959f2"
        d="M14.5 104.5c24.258 13.45 49.925 16.784 77 10-3.178 2.758-6.845 4.758-11 6-18.559 2.548-36.892.548-55-6a39.308 39.308 0 0 1-11-10Z"
        style="opacity:.999" />
</svg>